<svg width="30" height="30" viewBox="0 0 146 146" fill="none" xmlns="http://www.w3.org/2000/svg">
<path d="M0 73C0 113.315 32.685 146 73 146C113.315 146 146 113.315 146 73C146 32.685 113.315 0 73 0C32.685 0 0 32.685 0 73ZM74.632 40.9362C75.1556 41.4555 75.5718 42.073 75.8568 42.7532C76.1418 43.4335 76.29 44.1632 76.2929 44.9007C76.2959 45.6383 76.1535 46.3692 75.8739 47.0517C75.5943 47.7342 75.1831 48.3549 74.6636 48.8784L56.3012 67.3846H103.183C104.672 67.3846 106.1 67.9762 107.153 69.0293C108.206 70.0824 108.798 71.5107 108.798 73C108.798 74.4893 108.206 75.9176 107.153 76.9707C106.1 78.0238 104.672 78.6154 103.183 78.6154H56.3012L74.6636 97.1216C75.183 97.6456 75.5941 98.2668 75.8734 98.9497C76.1528 99.6327 76.2949 100.364 76.2916 101.102C76.2884 101.84 76.1398 102.57 75.8545 103.25C75.5691 103.93 75.1525 104.548 74.6285 105.067C74.1044 105.587 73.4832 105.998 72.8003 106.277C72.1174 106.557 71.3861 106.699 70.6483 106.695C69.9105 106.692 69.1805 106.544 68.5001 106.258C67.8197 105.973 67.2021 105.556 66.6827 105.032L38.8199 76.9553C37.7761 75.9035 37.1904 74.4818 37.1904 73C37.1904 71.5182 37.7761 70.0965 38.8199 69.0447L66.6827 40.9677C67.2022 40.443 67.8201 40.0259 68.501 39.7403C69.1819 39.4547 69.9124 39.3062 70.6508 39.3033C71.3891 39.3003 72.1208 39.443 72.804 39.7232C73.4871 40.0034 74.1083 40.4156 74.632 40.9362V40.9362Z" fill="#FDBA30"/>
</svg>
