<svg width="35" height="35" viewBox="0 0 35 35" fill="none" xmlns="http://www.w3.org/2000/svg">
<path d="M17.5001 10.1613C17.1891 10.1613 16.9356 9.90768 16.9356 9.59676H15.8065C15.8065 10.3316 16.2801 10.9526 16.9356 11.1864V12.4193H18.0646V11.1864C18.7201 10.9526 19.1936 10.3316 19.1936 9.59676C19.1936 8.66316 18.4337 7.90321 17.5001 7.90321C17.1891 7.90321 16.9356 7.64962 16.9356 7.33869C16.9356 7.02777 17.1891 6.77418 17.5001 6.77418C17.811 6.77418 18.0646 7.02777 18.0646 7.33869H19.1936C19.1936 6.60383 18.7201 5.98281 18.0646 5.74906V4.51611H16.9356V5.74906C16.2801 5.98281 15.8065 6.60383 15.8065 7.33869C15.8065 8.2723 16.5665 9.03224 17.5001 9.03224C17.811 9.03224 18.0646 9.28583 18.0646 9.59676C18.0646 9.90768 17.811 10.1613 17.5001 10.1613Z" fill="#404041"/>
<path d="M35 16.9355V0H0V16.9355H9.03226V20.0844C9.03226 21.0908 9.32747 22.0657 9.88592 22.9029L11.2903 25.0099V25.9677H10.1613V31.6129H19.7743C21.3212 33.6648 23.7706 35 26.5323 35C31.2014 35 35 31.2014 35 26.5323C35 21.8631 31.2014 18.0645 26.5323 18.0645C26.3415 18.0645 26.1552 18.0808 25.9677 18.0932V16.9355H35ZM11.2903 30.4839V27.0968H18.0932C18.1739 28.3132 18.5066 29.461 19.0491 30.4839H11.2903ZM33.871 26.5323C33.871 30.5787 30.5787 33.871 26.5323 33.871C22.4858 33.871 19.1935 30.5787 19.1935 26.5323C19.1935 22.4858 22.4858 19.1935 26.5323 19.1935C30.5787 19.1935 33.871 22.4858 33.871 26.5323ZM24.8387 18.2349C21.1581 18.9852 18.3479 22.1325 18.0932 25.9677H12.4194V24.6675L10.825 22.2763C10.3912 21.625 10.1613 20.8667 10.1613 20.0844V15.8065H1.12903V1.12903H33.871V15.8065H13.5484V13.2606C14.6474 14.1722 16.0283 14.6774 17.5 14.6774H30.4839V14.1129C30.4839 13.1793 31.2438 12.4194 32.1774 12.4194H32.7419V4.51613H32.1774C31.2438 4.51613 30.4839 3.75618 30.4839 2.82258V2.25806H4.51613V2.82258C4.51613 3.75618 3.75618 4.51613 2.82258 4.51613H2.25806V12.4194H2.82258C3.75618 12.4194 4.51613 13.1793 4.51613 14.1129V14.6774H10.1613V10.7258C10.1613 10.1031 10.6676 9.59677 11.2903 9.59677C11.913 9.59677 12.4194 10.1031 12.4194 10.7258V19.1935H12.9839C14.5401 19.1935 15.8065 20.4599 15.8065 22.0161H16.9355C16.9355 20.0285 15.4611 18.3796 13.5484 18.1045V16.9355H24.8387V18.2349ZM12.4387 8.79245C12.4318 8.68385 12.4194 8.57607 12.4194 8.46774C12.4194 5.66666 14.6989 3.3871 17.5 3.3871C20.3011 3.3871 22.5806 5.66666 22.5806 8.46774C22.5806 11.2688 20.3011 13.5484 17.5 13.5484C15.9459 13.5484 14.5189 12.8557 13.5484 11.6506V10.7258C13.5484 9.90164 13.0996 9.18634 12.4387 8.79245ZM11.2903 8.46774C10.045 8.46774 9.03226 9.48045 9.03226 10.7258V13.5484H5.5881C5.36345 12.4442 4.49132 11.572 3.3871 11.3474V5.5881C4.49132 5.36345 5.36345 4.49132 5.5881 3.3871H13.9406C12.3408 4.51172 11.2903 6.36762 11.2903 8.46774ZM21.0594 3.3871H29.4119C29.6365 4.49132 30.5087 5.36345 31.6129 5.5881V11.3468C30.5087 11.5715 29.6365 12.4436 29.4119 13.5478H21.0594C22.6592 12.4238 23.7097 10.5679 23.7097 8.46774C23.7097 6.36762 22.6592 4.51172 21.0594 3.3871Z" fill="#404041"/>
<path d="M24.0404 26.5322L20.6533 29.9193L23.1451 32.4111L26.5322 29.024L29.9193 32.4111L32.4111 29.9193L29.024 26.5322L32.4111 23.1451L29.9193 20.6533L26.5322 24.0404L23.1451 20.6533L20.6533 23.1451L24.0404 26.5322ZM26.5322 25.6369L29.9193 22.2498L30.8146 23.1451L27.4275 26.5322L30.8146 29.9193L29.9193 30.8146L26.5322 27.4275L23.1451 30.8146L22.2498 29.9193L25.6369 26.5322L22.2498 23.1451L23.1451 22.2498L26.5322 25.6369Z" fill="#404041"/>
<path d="M31.6129 2.25806H32.7419V3.38709H31.6129V2.25806Z" fill="#404041"/>
<path d="M31.6129 13.5483H32.7419V14.6774H31.6129V13.5483Z" fill="#404041"/>
</svg>
