<svg width="238" height="67" viewBox="0 0 238 67" fill="none" xmlns="http://www.w3.org/2000/svg">
<path d="M1.20282 21.5838C2.88896 21.8845 5.26489 22.981 5.26489 26.8132V53.3729C5.97826 53.2255 7.32836 52.9072 9.07346 52.3707V34.8135L19.3082 47.8664C22.199 46.17 24.8449 44.0873 27.173 41.676L8.36599 18.0464H0.0413818V21.5071H0.401015C0.719378 21.5071 0.83729 21.5484 1.2323 21.5897" fill="#3C3C3B"/>
<path d="M39.3944 18.0818C39.5162 24.3482 38.0992 30.5487 35.2675 36.1401V51.8814L29.1538 44.2171C26.6825 46.5164 23.8604 48.4071 20.7938 49.8179L33.9233 66.5615H39.0879V26.7071C39.2058 23.1108 41.4933 22.0496 43.1382 21.7607C43.6289 21.6971 44.1232 21.6656 44.618 21.6664V18.0818H39.3944Z" fill="#3C3C3B"/>
<path d="M35.7038 18.0464H30.044V21.6368C30.4386 21.6329 30.8329 21.6605 31.2231 21.7194C32.1256 21.8397 32.9712 22.2284 33.6503 22.8349C34.3293 23.4414 34.8106 24.2379 35.0317 25.1212C35.7156 22.9457 35.7156 19.0251 35.7038 18.0464Z" fill="#3C3C3B"/>
<path d="M37.3134 8.21259V0L30.0382 12.027L37.3134 8.21259Z" fill="#3C3C3B"/>
<path d="M37.3132 8.21259V0L44.5884 12.027L37.3132 8.21259Z" fill="#FDBA30"/>
<path d="M14.2969 63.0417C13.902 63.047 13.5074 63.0175 13.1177 62.9533C11.4257 62.6526 9.04976 61.556 9.04976 57.7239V53.1784C7.83527 53.367 6.56182 53.5144 5.2471 53.6264V57.7534C5.2471 61.5796 2.88885 62.6821 1.17912 62.9828C0.789411 63.0466 0.394867 63.0762 0 63.0712V66.5319H14.2969V63.0712V63.0417Z" fill="#3C3C3B"/>
<path d="M53.8859 18.0406H53.3199V66.5438H53.8859V18.0406Z" fill="#3C3C3B"/>
<path d="M72.575 42.8729C72.575 46.4103 70.765 48.3971 67.5637 48.3971C64.3624 48.3971 62.5583 46.4162 62.5583 42.8729V36.4762H64.327V42.8729C64.327 45.3549 65.5062 46.705 67.5637 46.705C69.6213 46.705 70.8004 45.3549 70.8004 42.8729V36.4762H72.5691L72.575 42.8729Z" fill="#3C3C3B"/>
<path d="M83.9003 48.2261L77.2383 39.5006V48.2261H75.4637V36.4762H77.0791L83.747 45.2429V36.4762H85.5157V48.2261H83.9003Z" fill="#3C3C3B"/>
<path d="M90.7218 36.4762H88.9473V48.2261H90.7218V36.4762Z" fill="#3C3C3B"/>
<path d="M97.366 48.2261L92.5316 36.4762H94.5125L97.9438 45.0071C98.1178 45.482 98.2654 45.9662 98.386 46.4574C98.5216 45.974 98.6748 45.4729 98.8281 45.0071L102.365 36.4762H104.287L99.4354 48.2261H97.366Z" fill="#3C3C3B"/>
<path d="M106.056 48.2261V36.4762H113.986V38.1328H107.825V41.5051H113.196V43.1618H107.825V46.5694H114.163V48.2261H106.056Z" fill="#3C3C3B"/>
<path d="M126.16 48.2261H124.209L121.261 44.5296H118.525V48.2261H116.757V36.4762H121.09C124.191 36.4762 125.918 37.9442 125.918 40.5441C125.934 41.4049 125.657 42.2454 125.132 42.9278C124.607 43.6102 123.866 44.0939 123.03 44.2996L126.166 48.0905L126.16 48.2261ZM121.096 42.8729C123.006 42.8729 124.085 42.0239 124.085 40.5146C124.085 39.0054 123.006 38.1564 121.096 38.1033H118.496V42.8198L121.096 42.8729Z" fill="#3C3C3B"/>
<path d="M135.334 38.6339C134.141 38.1167 132.855 37.8479 131.555 37.8439C130.323 37.8439 129.633 38.5573 129.633 39.2707C129.633 40.6561 130.611 40.833 132.769 41.5405C134.809 42.2185 136.201 42.9082 136.201 45.013C136.201 47.3712 134.467 48.3971 132.404 48.3971C130.591 48.326 128.82 47.8249 127.239 46.9349L127.935 45.5495C129.299 46.2571 130.794 46.6766 132.327 46.7817C133.559 46.7817 134.367 46.2629 134.367 45.2783C134.367 44.0107 133.713 43.6039 131.248 42.8729C129.379 42.2833 127.799 41.7763 127.799 39.4416C127.799 37.5727 129.244 36.2875 131.578 36.2875C133.056 36.3138 134.514 36.6283 135.87 37.2131L135.334 38.6339Z" fill="#3C3C3B"/>
<path d="M140.516 36.4762H138.741V48.2261H140.516V36.4762Z" fill="#3C3C3B"/>
<path d="M147.644 36.4762C151.723 36.4762 154.017 38.5573 154.017 42.2538C154.017 46.0683 151.723 48.2261 147.644 48.2261H143.941V36.4762H147.644ZM147.644 46.5694C150.592 46.5694 152.207 45.013 152.207 42.2538C152.207 39.6185 150.568 38.1269 147.644 38.1269H145.716V46.5694H147.644Z" fill="#3C3C3B"/>
<path d="M156.464 48.2261H154.559L159.453 36.4762H161.811L166.704 48.2261H164.8L163.662 45.4552H157.601L156.464 48.2261ZM161.068 39.1351C160.897 38.6751 160.75 38.2068 160.626 37.7319C160.526 38.0974 160.396 38.5573 160.178 39.1351L158.256 43.8162H162.972L161.068 39.1351Z" fill="#3C3C3B"/>
<path d="M172.299 36.4762C176.379 36.4762 178.672 38.5573 178.672 42.2538C178.672 46.0683 176.379 48.2261 172.299 48.2261H168.597V36.4762H172.299ZM172.299 46.5694C175.247 46.5694 176.862 45.013 176.862 42.2538C176.862 39.6185 175.223 38.1269 172.299 38.1269H170.371V46.5694H172.299Z" fill="#3C3C3B"/>
<path d="M66.6205 54.7762C69.7039 54.7762 71.4372 56.2795 71.4372 58.9738C71.4372 61.6681 69.7216 63.1538 66.7207 63.1538H64.3625V66.5261H62.5938V54.7762H66.6205ZM66.6795 61.4971C68.625 61.4971 69.7216 60.5951 69.7039 58.9738C69.6862 57.3525 68.5838 56.4328 66.6205 56.4328H64.3271V61.4971H66.6795Z" fill="#3C3C3B"/>
<path d="M83.2223 66.5261H81.2768L78.2936 62.8531H75.5581V66.5497H73.7894V54.7762H78.1168C81.2237 54.7762 82.9512 56.2442 82.9512 58.8441C82.968 59.7017 82.694 60.5398 82.1737 61.2217C81.6534 61.9037 80.9175 62.3893 80.0859 62.5996L83.2223 66.3905V66.5261ZM78.158 61.1729C80.0623 61.1729 81.1412 60.3239 81.1412 58.8146C81.1412 57.3054 80.0623 56.4564 78.158 56.4033H75.5581V61.1198L78.158 61.1729Z" fill="#3C3C3B"/>
<path d="M87.255 54.7762H85.4804V66.5261H87.255V54.7762Z" fill="#3C3C3B"/>
<path d="M93.9703 66.5261L89.1359 54.7762H91.1227L94.548 63.3071C94.7258 63.7793 94.8754 64.2616 94.9961 64.7515C95.1258 64.274 95.285 63.7729 95.4383 63.3071L98.9403 54.7762H100.868L96.016 66.5261H93.9703Z" fill="#3C3C3B"/>
<path d="M101.947 66.5261H100.037L104.93 54.7762H107.288L112.176 66.5261H110.271L109.134 63.7493H103.085L101.947 66.5261ZM106.551 57.4351C106.379 56.9734 106.232 56.5031 106.109 56.026C105.986 56.5031 105.839 56.9734 105.667 57.4351L103.739 62.1162H108.456L106.551 57.4351Z" fill="#3C3C3B"/>
<path d="M117.783 54.7762C121.862 54.7762 124.156 56.8573 124.156 60.5539C124.156 64.3683 121.862 66.5261 117.783 66.5261H114.08V54.7762H117.783ZM117.783 64.8694C120.73 64.8694 122.346 63.3071 122.346 60.5539C122.346 57.9185 120.707 56.4269 117.783 56.4269H115.855V64.8635L117.783 64.8694Z" fill="#3C3C3B"/>
<path d="M126.661 66.5261H124.757L129.65 54.7762H132.009L136.902 66.5261H134.998L133.86 63.7493H127.799L126.661 66.5261ZM131.283 57.4351C131.112 56.9734 130.964 56.5031 130.841 56.026C130.718 56.5031 130.571 56.9734 130.399 57.4351L128.471 62.1162H133.188L131.283 57.4351Z" fill="#3C3C3B"/>
<path d="M148.11 54.7762C152.195 54.7762 154.483 56.8573 154.483 60.5539C154.483 64.3683 152.195 66.5261 148.11 66.5261H144.413V54.7762H148.11ZM148.11 64.8694C151.057 64.8694 152.673 63.3071 152.673 60.5539C152.673 57.9185 151.034 56.4269 148.11 56.4269H146.182V64.8635L148.11 64.8694Z" fill="#3C3C3B"/>
<path d="M156.912 66.5261V54.7762H164.847V56.4328H158.686V59.8051H164.057V61.4618H158.686V64.8694H165.024V66.5261H156.912Z" fill="#3C3C3B"/>
<path d="M167.583 66.5261V54.7762H169.357V64.8282H175.117V66.5261H167.583Z" fill="#3C3C3B"/>
<path d="M190.882 66.5261L184.22 57.8006V66.5261H182.451V54.7762H184.067L190.729 63.5429V54.7762H192.503V66.5261H190.882Z" fill="#3C3C3B"/>
<path d="M206.217 60.6718C206.217 64.5216 204.159 66.6971 200.616 66.6971C197.073 66.6971 195.027 64.5216 195.027 60.6718C195.027 56.822 197.091 54.5993 200.616 54.5993C204.142 54.5993 206.217 56.7748 206.217 60.6836V60.6718ZM204.407 60.6836C204.407 57.777 203.039 56.2501 200.616 56.2501C198.193 56.2501 196.837 57.777 196.837 60.6836C196.837 63.5901 198.205 65.0522 200.616 65.0522C203.027 65.0522 204.407 63.5547 204.407 60.6836Z" fill="#3C3C3B"/>
<path d="M218.085 66.5261H216.139L213.156 62.8531H210.42V66.5497H208.652V54.7762H212.985C216.086 54.7762 217.819 56.2442 217.819 58.8441C217.836 59.7025 217.561 60.5412 217.04 61.2232C216.518 61.9053 215.781 62.3905 214.948 62.5996L218.091 66.3905L218.085 66.5261ZM213.02 61.1729C214.925 61.1729 216.004 60.3239 216.004 58.8146C216.004 57.3054 214.925 56.4564 213.02 56.4033H210.42V61.1198L213.02 61.1729Z" fill="#3C3C3B"/>
<path d="M224.228 56.4328V66.5261H222.459V56.4328H218.356V54.7762H228.331V56.4328H224.228Z" fill="#3C3C3B"/>
<path d="M229.893 66.5261V54.7762H237.829V56.4328H231.662V59.8051H237.039V61.4618H231.662V64.8694H238V66.5261H229.893Z" fill="#3C3C3B"/>
</svg>
