<svg width="33" height="33" viewBox="0 0 33 33" fill="none" xmlns="http://www.w3.org/2000/svg">
<path d="M11.3345 11.1138C10.6623 12.4671 10.3125 13.9577 10.3125 15.4687C10.3125 16.9798 10.6623 18.4704 11.3345 19.8237L12.2574 19.3638C11.6564 18.1533 11.3437 16.8202 11.3437 15.4687C11.3437 14.1173 11.6564 12.7842 12.2574 11.5737L11.3345 11.1138Z" fill="#404041"/>
<path d="M10.1949 19.3638C9.59394 18.1533 9.28121 16.8202 9.28121 15.4687C9.28121 14.1173 9.59394 12.7842 10.1949 11.5737L9.27195 11.1138C8.59978 12.4671 8.25 13.9577 8.25 15.4687C8.25 16.9798 8.59978 18.4704 9.27195 19.8237L10.1949 19.3638Z" fill="#404041"/>
<path d="M30.9469 11.1138L30.0239 11.5737C30.6249 12.7842 30.9376 14.1173 30.9376 15.4687C30.9376 16.8202 30.6249 18.1533 30.0239 19.3638L30.9469 19.8237C31.6191 18.4704 31.9688 16.9798 31.9688 15.4687C31.9688 13.9577 31.6191 12.4671 30.9469 11.1138Z" fill="#404041"/>
<path d="M27.9614 11.5737C28.5624 12.7842 28.8751 14.1173 28.8751 15.4687C28.8751 16.8202 28.5624 18.1533 27.9614 19.3638L28.8844 19.8237C29.5566 18.4704 29.9063 16.9798 29.9063 15.4687C29.9063 13.9577 29.5566 12.4671 28.8844 11.1138L27.9614 11.5737Z" fill="#404041"/>
<path d="M12.375 15.4688C12.375 16.9985 12.8286 18.4938 13.6785 19.7657C14.5283 21.0377 15.7363 22.029 17.1496 22.6144C18.5628 23.1998 20.118 23.3529 21.6183 23.0545C23.1186 22.7561 24.4967 22.0195 25.5784 20.9378C26.6601 19.8561 27.3967 18.478 27.6951 16.9777C27.9936 15.4773 27.8404 13.9222 27.255 12.5089C26.6696 11.0957 25.6783 9.88772 24.4064 9.03785C23.1345 8.18799 21.6391 7.73437 20.1094 7.73438C18.0588 7.7367 16.0929 8.55231 14.6429 10.0023C13.1929 11.4523 12.3773 13.4182 12.375 15.4688ZM20.625 9.82317V8.79192C21.4495 8.85477 22.255 9.07127 23 9.43027L22.4843 10.3249C21.898 10.0519 21.269 9.88218 20.625 9.82317ZM19.5937 9.82317C18.9508 9.88253 18.3228 10.0523 17.7375 10.3249L17.2219 9.43027C17.9659 9.07164 18.7703 8.85515 19.5937 8.79192V9.82317ZM20.1094 10.8281C21.0272 10.8281 21.9244 11.1003 22.6876 11.6102C23.4507 12.1201 24.0455 12.8449 24.3968 13.6929C24.748 14.5408 24.8399 15.4739 24.6608 16.3741C24.4818 17.2743 24.0398 18.1012 23.3908 18.7502C22.7418 19.3992 21.9149 19.8411 21.0147 20.0202C20.1145 20.1993 19.1814 20.1074 18.3335 19.7561C17.4855 19.4049 16.7608 18.8101 16.2508 18.0469C15.7409 17.2838 15.4687 16.3866 15.4687 15.4688C15.4703 14.2384 15.9597 13.059 16.8296 12.189C17.6996 11.319 18.8791 10.8296 20.1094 10.8281ZM25.755 15.9844H26.7862C26.7316 16.7228 26.5538 17.447 26.2603 18.1268L25.3595 17.607C25.5712 17.0888 25.7045 16.5419 25.755 15.9844ZM25.755 14.9531C25.6959 14.3093 25.5262 13.6804 25.2532 13.0943L26.1479 12.5787C26.5068 13.3234 26.7233 14.1288 26.7862 14.9531H25.755ZM22.8829 20.411L23.3985 21.303C22.6993 21.6977 21.9343 21.9623 21.1406 22.0842V21.0421C21.7523 20.9295 22.341 20.7162 22.8829 20.411ZM14.4638 15.9844C14.53 16.7151 14.7386 17.4257 15.0779 18.0763L14.1833 18.5919C13.7563 17.7836 13.5007 16.8959 13.4325 15.9844H14.4638ZM14.4638 14.9531H13.4325C13.4954 14.1286 13.7119 13.3231 14.0709 12.5782L14.9655 13.0938C14.6925 13.6801 14.5228 14.3091 14.4638 14.9531ZM14.7386 19.4628L15.6368 18.9441C16.0725 19.5034 16.6086 19.9765 17.2177 20.3393L16.7021 21.2314C15.9373 20.7772 15.27 20.1761 14.7386 19.4628ZM17.6261 21.6903L18.15 20.7848C18.7768 21.019 19.4403 21.1395 20.1094 21.1406V22.1719C19.2591 22.1713 18.4169 22.0078 17.6282 21.6903H17.6261ZM24.2555 20.7281L23.7358 19.8278C24.1818 19.4542 24.5682 19.0146 24.8815 18.5243L25.774 19.04C25.3668 19.6844 24.8534 20.2552 24.2555 20.7281ZM25.6358 11.6851L24.7376 12.2038C24.3641 11.6767 23.904 11.2166 23.3769 10.8431L23.8956 9.94486C24.5768 10.4131 25.1666 11.002 25.6358 11.6825V11.6851ZM16.3231 9.94228L16.8419 10.8405C16.3147 11.214 15.8547 11.6741 15.4811 12.2012L14.5829 11.6825C15.0519 11.0011 15.6417 10.4113 16.3231 9.94228Z" fill="#404041"/>
<path d="M19.5938 19.0781H20.625V18.0469C20.8985 18.0469 21.1608 17.9382 21.3542 17.7448C21.5476 17.5514 21.6562 17.2891 21.6562 17.0156V15.9844C21.6562 15.7109 21.5476 15.4486 21.3542 15.2552C21.1608 15.0618 20.8985 14.9531 20.625 14.9531H19.5938V13.9219H21.6562V12.8906H20.625V11.8594H19.5938V12.8906C19.3202 12.8906 19.0579 12.9993 18.8645 13.1927C18.6711 13.3861 18.5625 13.6484 18.5625 13.9219V14.9531C18.5625 15.2266 18.6711 15.4889 18.8645 15.6823C19.0579 15.8757 19.3202 15.9844 19.5938 15.9844H20.625V17.0156H18.5625V18.0469H19.5938V19.0781Z" fill="#404041"/>
<path d="M28.2563 25.9205C28.0631 25.7765 27.8392 25.6792 27.6021 25.6363C27.365 25.5934 27.1213 25.6059 26.8898 25.673L19.5216 27.8438H14.5716L11.7872 26.2969H15.9844C16.3943 26.2957 16.787 26.1323 17.0768 25.8425C17.3667 25.5526 17.53 25.1599 17.5313 24.75V24.4922C17.5303 24.1585 17.4221 23.8339 17.2224 23.5665C17.0228 23.299 16.7424 23.103 16.4227 23.0072L8.39438 20.6456C8.34771 20.6309 8.29893 20.6239 8.25 20.625H5.15625V19.5938C5.15661 19.4711 5.11319 19.3523 5.0338 19.2587C4.95441 19.1651 4.84425 19.1029 4.72313 19.0833L1.62938 18.5677C1.55552 18.5557 1.47995 18.56 1.4079 18.5801C1.33585 18.6003 1.26906 18.6359 1.21215 18.6845C1.15524 18.733 1.10958 18.7934 1.07834 18.8614C1.0471 18.9294 1.03104 19.0033 1.03125 19.0781V31.4531C1.03125 31.5899 1.08558 31.7211 1.18228 31.8178C1.27897 31.9144 1.41012 31.9688 1.54688 31.9688C1.57448 31.9696 1.6021 31.9679 1.62938 31.9636L4.72313 31.448C4.84425 31.4284 4.95441 31.3662 5.0338 31.2726C5.11319 31.179 5.15661 31.0602 5.15625 30.9375V30.1074L10.6631 31.943C10.7167 31.9591 10.7722 31.9678 10.8281 31.9688H19.5938C19.6519 31.969 19.7096 31.9585 19.7639 31.9378L27.8438 29.0864C28.1455 28.9798 28.4067 28.7821 28.5914 28.5208C28.7761 28.2594 28.8752 27.9472 28.875 27.6272V27.158C28.8757 26.9177 28.82 26.6807 28.7126 26.4658C28.6051 26.2509 28.4488 26.0641 28.2563 25.9205ZM4.125 30.4992L2.0625 30.8447V19.6866L4.125 20.0321V30.4992ZM27.8438 27.6272C27.8444 27.7347 27.8115 27.8397 27.7495 27.9275C27.6876 28.0153 27.5997 28.0816 27.4983 28.1171L19.5061 30.9375H10.9106L5.15625 29.0194V21.6563H8.17781L16.1288 23.9972C16.2355 24.029 16.3292 24.0943 16.3961 24.1834C16.4629 24.2726 16.4993 24.3808 16.5 24.4922V24.75C16.5 24.8868 16.4457 25.0179 16.349 25.1146C16.2523 25.2113 16.1211 25.2656 15.9844 25.2656H9.79688C9.68315 25.266 9.57273 25.3039 9.4828 25.3735C9.39288 25.4432 9.32849 25.5406 9.29966 25.6506C9.27083 25.7606 9.27919 25.877 9.32342 25.9818C9.36765 26.0866 9.44528 26.1738 9.54422 26.2299L14.1848 28.808C14.2614 28.8529 14.3488 28.8761 14.4375 28.875H19.5938C19.6427 28.8761 19.6915 28.8692 19.7381 28.8544L27.1838 26.663C27.2606 26.6406 27.3416 26.6364 27.4204 26.6507C27.4991 26.665 27.5735 26.6975 27.6375 26.7455C27.7015 26.7935 27.7535 26.8558 27.7893 26.9274C27.8251 26.999 27.8438 27.0779 27.8438 27.158V27.6272Z" fill="#404041"/>
<path d="M10.3125 5.15614H11.8594V7.73427C11.8594 7.87102 11.9137 8.00217 12.0104 8.09887C12.1071 8.19557 12.2383 8.24989 12.375 8.24989H14.4375C14.5743 8.24989 14.7054 8.19557 14.8021 8.09887C14.8988 8.00217 14.9531 7.87102 14.9531 7.73427V5.15614H16.5C16.602 5.15612 16.7017 5.12587 16.7864 5.06921C16.8712 5.01255 16.9373 4.93203 16.9763 4.83782C17.0153 4.74362 17.0255 4.63996 17.0056 4.53995C16.9857 4.43995 16.9367 4.34808 16.8646 4.27597L13.7708 1.18222C13.6741 1.08555 13.543 1.03125 13.4063 1.03125C13.2695 1.03125 13.1384 1.08555 13.0417 1.18222L9.94796 4.27597C9.87588 4.34808 9.82679 4.43995 9.8069 4.53995C9.78701 4.63996 9.79722 4.74362 9.83624 4.83782C9.87526 4.93203 9.94133 5.01255 10.0261 5.06921C10.1109 5.12587 10.2105 5.15612 10.3125 5.15614ZM13.4063 2.27586L15.2553 4.12489H14.4375C14.3008 4.12489 14.1696 4.17921 14.0729 4.27591C13.9762 4.37261 13.9219 4.50376 13.9219 4.64052V7.21864H12.8906V4.64052C12.8906 4.50376 12.8363 4.37261 12.7396 4.27591C12.6429 4.17921 12.5118 4.12489 12.375 4.12489H11.5572L13.4063 2.27586Z" fill="#404041"/>
<path d="M26.448 8.09892C26.5447 8.19559 26.6758 8.24989 26.8125 8.24989C26.9492 8.24989 27.0804 8.19559 27.1771 8.09892L30.2708 5.00517C30.3429 4.93306 30.392 4.84119 30.4119 4.74119C30.4318 4.64118 30.4216 4.53752 30.3825 4.44332C30.3435 4.34911 30.2775 4.26859 30.1927 4.21193C30.1079 4.15527 30.0082 4.12502 29.9063 4.125H28.3594V1.54687C28.3594 1.41012 28.3051 1.27897 28.2084 1.18227C28.1117 1.08557 27.9805 1.03125 27.8438 1.03125H25.7813C25.6445 1.03125 25.5134 1.08557 25.4167 1.18227C25.32 1.27897 25.2656 1.41012 25.2656 1.54687V4.125H23.7188C23.6168 4.12502 23.5171 4.15527 23.4324 4.21193C23.3476 4.26859 23.2815 4.34911 23.2425 4.44332C23.2035 4.53752 23.1933 4.64118 23.2131 4.74119C23.233 4.84119 23.2821 4.93306 23.3542 5.00517L26.448 8.09892ZM25.7813 5.15625C25.918 5.15625 26.0492 5.10192 26.1459 5.00523C26.2426 4.90853 26.2969 4.77738 26.2969 4.64062V2.0625H27.3281V4.64062C27.3281 4.77738 27.3825 4.90853 27.4792 5.00523C27.5759 5.10192 27.707 5.15625 27.8438 5.15625H28.6615L26.8125 7.00528L24.9635 5.15625H25.7813Z" fill="#404041"/>
</svg>
