<svg width="36" height="31" viewBox="0 0 26 21" fill="none" xmlns="http://www.w3.org/2000/svg">
<path fill-rule="evenodd" clip-rule="evenodd" d="M0 19.95C0 19.6715 0.114137 19.4045 0.317301 19.2075C0.520466 19.0106 0.796015 18.9 1.08333 18.9H24.9167C25.204 18.9 25.4795 19.0106 25.6827 19.2075C25.8859 19.4045 26 19.6715 26 19.95C26 20.2285 25.8859 20.4955 25.6827 20.6925C25.4795 20.8894 25.204 21 24.9167 21H1.08333C0.796015 21 0.520466 20.8894 0.317301 20.6925C0.114137 20.4955 0 20.2285 0 19.95ZM0 13.65C0 13.3715 0.114137 13.1045 0.317301 12.9075C0.520466 12.7106 0.796015 12.6 1.08333 12.6H24.9167C25.204 12.6 25.4795 12.7106 25.6827 12.9075C25.8859 13.1045 26 13.3715 26 13.65C26 13.9285 25.8859 14.1955 25.6827 14.3925C25.4795 14.5894 25.204 14.7 24.9167 14.7H1.08333C0.796015 14.7 0.520466 14.5894 0.317301 14.3925C0.114137 14.1955 0 13.9285 0 13.65ZM0 7.35C0 7.07152 0.114137 6.80445 0.317301 6.60754C0.520466 6.41062 0.796015 6.3 1.08333 6.3H24.9167C25.204 6.3 25.4795 6.41062 25.6827 6.60754C25.8859 6.80445 26 7.07152 26 7.35C26 7.62848 25.8859 7.89555 25.6827 8.09246C25.4795 8.28937 25.204 8.4 24.9167 8.4H1.08333C0.796015 8.4 0.520466 8.28937 0.317301 8.09246C0.114137 7.89555 0 7.62848 0 7.35ZM0 1.05C0 0.771523 0.114137 0.504451 0.317301 0.307538C0.520466 0.110625 0.796015 0 1.08333 0H24.9167C25.204 0 25.4795 0.110625 25.6827 0.307538C25.8859 0.504451 26 0.771523 26 1.05C26 1.32848 25.8859 1.59555 25.6827 1.79246C25.4795 1.98938 25.204 2.1 24.9167 2.1H1.08333C0.796015 2.1 0.520466 1.98938 0.317301 1.79246C0.114137 1.59555 0 1.32848 0 1.05Z" fill="#FDBA30"/>
</svg>
