<svg width="444" height="154" viewBox="0 0 444 154" fill="none" xmlns="http://www.w3.org/2000/svg">
<g clip-path="url(#clip0)">
<path d="M443.95 0H0V153.59H443.95V0Z" fill="#FDBA30"/>
<path d="M22.36 57C25.22 57.51 29.25 59.37 29.25 65.87V110.92C30.46 110.67 32.75 110.13 35.71 109.22V79.44L53.07 101.58C57.9732 98.7025 62.4612 95.17 66.41 91.08L34.51 51H20.39V56.87H21C21.54 56.87 21.74 56.94 22.41 57.01" fill="#3C3C3B"/>
<path d="M87.14 51.06C87.3466 61.6888 84.943 72.206 80.14 81.69V108.39L69.77 95.39C65.5782 99.2901 60.7915 102.497 55.59 104.89L77.86 133.29H86.62V65.69C86.82 59.59 90.7 57.79 93.49 57.3C94.3223 57.1922 95.1607 57.1387 96 57.14V51.06H87.14Z" fill="#3C3C3B"/>
<path d="M80.88 51H71.28V57.09C71.9493 57.0833 72.6181 57.1301 73.28 57.23C74.8108 57.4342 76.245 58.0933 77.3968 59.1221C78.5487 60.1509 79.365 61.5019 79.74 63C80.9 59.31 80.9 52.66 80.88 51Z" fill="#3C3C3B"/>
<path d="M83.61 34.32V20.39L71.27 40.79L83.61 34.32Z" fill="#3C3C3B"/>
<path d="M83.61 34.32V20.39L95.95 40.79L83.61 34.32Z" fill="white"/>
<path d="M44.57 127.32C43.9002 127.329 43.231 127.279 42.57 127.17C39.7 126.66 35.67 124.8 35.67 118.3V110.59C33.61 110.91 31.45 111.16 29.22 111.35V118.35C29.22 124.84 25.22 126.71 22.32 127.22C21.659 127.328 20.9898 127.378 20.32 127.37V133.24H44.57V127.37V127.32Z" fill="#3C3C3B"/>
<path d="M111.72 50.99H110.76V133.26H111.72V50.99Z" fill="#3C3C3B"/>
<path d="M143.42 93.11C143.42 99.11 140.35 102.48 134.92 102.48C129.49 102.48 126.43 99.12 126.43 93.11V82.26H129.43V93.11C129.43 97.32 131.43 99.61 134.92 99.61C138.41 99.61 140.41 97.32 140.41 93.11V82.26H143.41L143.42 93.11Z" fill="#3C3C3B"/>
<path d="M162.63 102.19L151.33 87.39V102.19H148.32V82.26H151.06L162.37 97.13V82.26H165.37V102.19H162.63Z" fill="#3C3C3B"/>
<path d="M174.2 82.26H171.19V102.19H174.2V82.26Z" fill="#3C3C3B"/>
<path d="M185.47 102.19L177.27 82.26H180.63L186.45 96.73C186.745 97.5356 186.996 98.3568 187.2 99.19C187.43 98.37 187.69 97.52 187.95 96.73L193.95 82.26H197.21L188.98 102.19H185.47Z" fill="#3C3C3B"/>
<path d="M200.21 102.19V82.26H213.66V85.07H203.21V90.79H212.32V93.6H203.21V99.38H213.96V102.19H200.21Z" fill="#3C3C3B"/>
<path d="M234.31 102.19H231L226 95.92H221.36V102.19H218.36V82.26H225.71C230.97 82.26 233.9 84.75 233.9 89.16C233.926 90.62 233.456 92.0457 232.566 93.2031C231.675 94.3606 230.418 95.1811 229 95.53L234.32 101.96L234.31 102.19ZM225.72 93.11C228.96 93.11 230.79 91.67 230.79 89.11C230.79 86.55 228.96 85.11 225.72 85.02H221.31V93.02L225.72 93.11Z" fill="#3C3C3B"/>
<path d="M249.87 85.92C247.846 85.0427 245.665 84.5868 243.46 84.58C241.37 84.58 240.2 85.79 240.2 87C240.2 89.35 241.86 89.65 245.52 90.85C248.98 92 251.34 93.17 251.34 96.74C251.34 100.74 248.4 102.48 244.9 102.48C241.825 102.36 238.822 101.509 236.14 100L237.32 97.65C239.634 98.8503 242.17 99.5617 244.77 99.74C246.86 99.74 248.23 98.86 248.23 97.19C248.23 95.04 247.12 94.35 242.94 93.11C239.77 92.11 237.09 91.25 237.09 87.29C237.09 84.12 239.54 81.94 243.5 81.94C246.006 81.9847 248.479 82.518 250.78 83.51L249.87 85.92Z" fill="#3C3C3B"/>
<path d="M258.66 82.26H255.65V102.19H258.66V82.26Z" fill="#3C3C3B"/>
<path d="M270.75 82.26C277.67 82.26 281.56 85.79 281.56 92.06C281.56 98.53 277.67 102.19 270.75 102.19H264.47V82.26H270.75ZM270.75 99.38C275.75 99.38 278.49 96.74 278.49 92.06C278.49 87.59 275.71 85.06 270.75 85.06H267.48V99.38H270.75Z" fill="#3C3C3B"/>
<path d="M285.71 102.19H282.48L290.78 82.26H294.78L303.08 102.19H299.85L297.92 97.49H287.64L285.71 102.19ZM293.52 86.77C293.23 85.9898 292.98 85.1954 292.77 84.39C292.6 85.01 292.38 85.79 292.01 86.77L288.75 94.71H296.75L293.52 86.77Z" fill="#3C3C3B"/>
<path d="M312.57 82.26C319.49 82.26 323.38 85.79 323.38 92.06C323.38 98.53 319.49 102.19 312.57 102.19H306.29V82.26H312.57ZM312.57 99.38C317.57 99.38 320.31 96.74 320.31 92.06C320.31 87.59 317.53 85.06 312.57 85.06H309.3V99.38H312.57Z" fill="#3C3C3B"/>
<path d="M133.32 113.3C138.55 113.3 141.49 115.85 141.49 120.42C141.49 124.99 138.58 127.51 133.49 127.51H129.49V133.23H126.49V113.3H133.32ZM133.42 124.7C136.72 124.7 138.58 123.17 138.55 120.42C138.52 117.67 136.65 116.11 133.32 116.11H129.43V124.7H133.42Z" fill="#3C3C3B"/>
<path d="M161.48 133.23H158.18L153.12 127H148.48V133.27H145.48V113.3H152.82C158.09 113.3 161.02 115.79 161.02 120.2C161.049 121.655 160.584 123.076 159.701 124.233C158.819 125.39 157.571 126.213 156.16 126.57L161.48 133V133.23ZM152.89 124.15C156.12 124.15 157.95 122.71 157.95 120.15C157.95 117.59 156.12 116.15 152.89 116.06H148.48V124.06L152.89 124.15Z" fill="#3C3C3B"/>
<path d="M168.32 113.3H165.31V133.23H168.32V113.3Z" fill="#3C3C3B"/>
<path d="M179.71 133.23L171.51 113.3H174.88L180.69 127.77C180.992 128.571 181.245 129.389 181.45 130.22C181.67 129.41 181.94 128.56 182.2 127.77L188.14 113.3H191.41L183.18 133.23H179.71Z" fill="#3C3C3B"/>
<path d="M193.24 133.23H190L198.3 113.3H202.3L210.59 133.23H207.36L205.43 128.52H195.17L193.24 133.23ZM201.05 117.81C200.759 117.027 200.508 116.229 200.3 115.42C200.092 116.229 199.841 117.027 199.55 117.81L196.28 125.75H204.28L201.05 117.81Z" fill="#3C3C3B"/>
<path d="M220.1 113.3C227.02 113.3 230.91 116.83 230.91 123.1C230.91 129.57 227.02 133.23 220.1 133.23H213.82V113.3H220.1ZM220.1 130.42C225.1 130.42 227.84 127.77 227.84 123.1C227.84 118.63 225.06 116.1 220.1 116.1H216.83V130.41L220.1 130.42Z" fill="#3C3C3B"/>
<path d="M235.16 133.23H231.93L240.23 113.3H244.23L252.53 133.23H249.3L247.37 128.52H237.09L235.16 133.23ZM243 117.81C242.709 117.027 242.458 116.229 242.25 115.42C242.042 116.229 241.791 117.027 241.5 117.81L238.23 125.75H246.23L243 117.81Z" fill="#3C3C3B"/>
<path d="M271.54 113.3C278.47 113.3 282.35 116.83 282.35 123.1C282.35 129.57 278.47 133.23 271.54 133.23H265.27V113.3H271.54ZM271.54 130.42C276.54 130.42 279.28 127.77 279.28 123.1C279.28 118.63 276.5 116.1 271.54 116.1H268.27V130.41L271.54 130.42Z" fill="#3C3C3B"/>
<path d="M286.47 133.23V113.3H299.93V116.11H289.48V121.83H298.59V124.64H289.48V130.42H300.23V133.23H286.47Z" fill="#3C3C3B"/>
<path d="M304.57 133.23V113.3H307.58V130.35H317.35V133.23H304.57Z" fill="#3C3C3B"/>
<path d="M344.09 133.23L332.79 118.43V133.23H329.79V113.3H332.53L343.83 128.17V113.3H346.84V133.23H344.09Z" fill="#3C3C3B"/>
<path d="M370.1 123.3C370.1 129.83 366.61 133.52 360.6 133.52C354.59 133.52 351.12 129.83 351.12 123.3C351.12 116.77 354.62 113 360.6 113C366.58 113 370.1 116.69 370.1 123.32V123.3ZM367.03 123.32C367.03 118.39 364.71 115.8 360.6 115.8C356.49 115.8 354.19 118.39 354.19 123.32C354.19 128.25 356.51 130.73 360.6 130.73C364.69 130.73 367.03 128.19 367.03 123.32Z" fill="#3C3C3B"/>
<path d="M390.23 133.23H386.93L381.87 127H377.23V133.27H374.23V113.3H381.58C386.84 113.3 389.78 115.79 389.78 120.2C389.808 121.656 389.342 123.078 388.457 124.235C387.573 125.392 386.322 126.215 384.91 126.57L390.24 133L390.23 133.23ZM381.64 124.15C384.87 124.15 386.7 122.71 386.7 120.15C386.7 117.59 384.87 116.15 381.64 116.06H377.23V124.06L381.64 124.15Z" fill="#3C3C3B"/>
<path d="M400.65 116.11V133.23H397.65V116.11H390.69V113.3H407.61V116.11H400.65Z" fill="#3C3C3B"/>
<path d="M410.26 133.23V113.3H423.72V116.11H413.26V121.83H422.38V124.64H413.26V130.42H424.01V133.23H410.26Z" fill="#3C3C3B"/>
</g>
<defs>
<clipPath id="clip0">
<rect width="443.95" height="153.59" fill="white"/>
</clipPath>
</defs>
</svg>
