<svg width="206" height="58" viewBox="0 0 206 58" fill="none" xmlns="http://www.w3.org/2000/svg">
<path d="M1.04104 18.6818C2.50048 18.9421 4.55696 19.8912 4.55696 23.2081V46.1968C5.17441 46.0692 6.34298 45.7937 7.85345 45.3293V30.1328L16.7121 41.4307C19.2142 39.9623 21.5044 38.1597 23.5194 36.0726L7.2411 15.6201H0.0357666V18.6155H0.347045C0.622603 18.6155 0.724662 18.6512 1.06656 18.6869" fill="white"/>
<path d="M34.0978 15.6506C34.2032 21.0744 32.9767 26.4413 30.5257 31.2809V44.9057L25.234 38.2719C23.095 40.2621 20.6523 41.8986 17.998 43.1197L29.3623 57.612H33.8324V23.1162C33.9345 20.0034 35.9144 19.0849 37.3381 18.8349C37.7628 18.7798 38.1907 18.7526 38.619 18.7532V15.6506H34.0978Z" fill="white"/>
<path d="M30.9033 15.6201H26.0045V18.7277C26.3461 18.7243 26.6874 18.7482 27.0251 18.7992C27.8063 18.9034 28.5381 19.2397 29.1259 19.7647C29.7137 20.2897 30.1302 20.9791 30.3216 21.7436C30.9135 19.8606 30.9135 16.4671 30.9033 15.6201Z" fill="white"/>
<path d="M32.2964 7.10838V0L25.9994 10.41L32.2964 7.10838Z" fill="white"/>
<path d="M32.2964 7.10838V0L38.5934 10.41L32.2964 7.10838Z" fill="#FDBA30"/>
<path d="M12.3746 54.5656C12.0328 54.5702 11.6913 54.5446 11.354 54.4891C9.88947 54.2288 7.83299 53.2797 7.83299 49.9628V46.0284C6.78179 46.1917 5.67956 46.3193 4.5416 46.4163V49.9883C4.5416 53.3001 2.50043 54.2544 1.02059 54.5146C0.683272 54.5698 0.341776 54.5954 0 54.5912V57.5866H12.3746V54.5912V54.5656Z" fill="white"/>
<path d="M46.6408 15.6149H46.1509V57.5967H46.6408V15.6149Z" fill="white"/>
<path d="M62.817 37.1085C62.817 40.1702 61.2504 41.8899 58.4795 41.8899C55.7086 41.8899 54.1471 40.1753 54.1471 37.1085V31.5718H55.678V37.1085C55.678 39.2568 56.6986 40.4254 58.4795 40.4254C60.2604 40.4254 61.281 39.2568 61.281 37.1085V31.5718H62.8119L62.817 37.1085Z" fill="white"/>
<path d="M72.6197 41.7419L66.8534 34.1896V41.7419H65.3174V31.5718H66.7156L72.487 39.1598V31.5718H74.0179V41.7419H72.6197Z" fill="white"/>
<path d="M78.5238 31.5718H76.9878V41.7419H78.5238V31.5718Z" fill="white"/>
<path d="M84.2749 41.7419L80.0905 31.5718H81.805L84.7749 38.9557C84.9256 39.3668 85.0533 39.7859 85.1577 40.211C85.275 39.7926 85.4077 39.3588 85.5404 38.9557L88.6021 31.5718H90.2657L86.066 41.7419H84.2749Z" fill="white"/>
<path d="M91.7965 41.7419V31.5718H98.6599V33.0057H93.3274V35.9246H97.9762V37.3585H93.3274V40.308H98.813V41.7419H91.7965Z" fill="white"/>
<path d="M109.198 41.7419H107.508L104.957 38.5424H102.589V41.7419H101.058V31.5718H104.809C107.493 31.5718 108.988 32.8424 108.988 35.0928C109.002 35.8378 108.762 36.5653 108.307 37.156C107.853 37.7466 107.211 38.1653 106.488 38.3434L109.203 41.6245L109.198 41.7419ZM104.814 37.1085C106.467 37.1085 107.401 36.3736 107.401 35.0673C107.401 33.7609 106.467 33.0261 104.814 32.9802H102.564V37.0625L104.814 37.1085Z" fill="white"/>
<path d="M117.138 33.4394C116.105 32.9917 114.992 32.7591 113.867 32.7556C112.8 32.7556 112.203 33.3731 112.203 33.9905C112.203 35.1897 113.05 35.3428 114.918 35.9552C116.684 36.542 117.888 37.139 117.888 38.9608C117.888 41.0019 116.388 41.8899 114.602 41.8899C113.032 41.8284 111.5 41.3946 110.131 40.6243L110.733 39.4251C111.914 40.0376 113.208 40.4007 114.535 40.4917C115.602 40.4917 116.301 40.0426 116.301 39.1904C116.301 38.0933 115.734 37.7412 113.601 37.1084C111.984 36.5981 110.616 36.1593 110.616 34.1385C110.616 32.5209 111.866 31.4084 113.887 31.4084C115.166 31.4313 116.428 31.7034 117.602 32.2096L117.138 33.4394Z" fill="white"/>
<path d="M121.623 31.5718H120.087V41.7419H121.623V31.5718Z" fill="white"/>
<path d="M127.793 31.5718C131.324 31.5718 133.309 33.3731 133.309 36.5726C133.309 39.8742 131.324 41.7419 127.793 41.7419H124.588V31.5718H127.793ZM127.793 40.308C130.344 40.308 131.742 38.9608 131.742 36.5726C131.742 34.2916 130.324 33.0006 127.793 33.0006H126.124V40.308H127.793Z" fill="white"/>
<path d="M135.427 41.7419H133.778L138.014 31.5718H140.055L144.29 41.7419H142.642L141.657 39.3435H136.411L135.427 41.7419ZM139.412 33.8732C139.264 33.475 139.136 33.0697 139.029 32.6587C138.942 32.9751 138.83 33.3731 138.641 33.8732L136.978 37.9249H141.06L139.412 33.8732Z" fill="white"/>
<path d="M149.133 31.5718C152.664 31.5718 154.649 33.3731 154.649 36.5726C154.649 39.8742 152.664 41.7419 149.133 41.7419H145.928V31.5718H149.133ZM149.133 40.308C151.684 40.308 153.083 38.9608 153.083 36.5726C153.083 34.2916 151.664 33.0006 149.133 33.0006H147.464V40.308H149.133Z" fill="white"/>
<path d="M57.663 47.4113C60.3319 47.4113 61.8321 48.7125 61.8321 51.0445C61.8321 53.3766 60.3472 54.6625 57.7498 54.6625H55.7086V57.5814H54.1777V47.4113H57.663ZM57.7141 53.2286C59.398 53.2286 60.3472 52.4478 60.3319 51.0445C60.3166 49.6412 59.3623 48.8452 57.663 48.8452H55.678V53.2286H57.7141Z" fill="white"/>
<path d="M72.0328 57.5814H70.3489L67.7668 54.4023H65.399V57.6018H63.8682V47.4113H67.6137C70.303 47.4113 71.7981 48.6819 71.7981 50.9323C71.8127 51.6746 71.5755 52.3999 71.1252 52.9902C70.6748 53.5805 70.0379 54.0008 69.3181 54.1828L72.0328 57.464V57.5814ZM67.6494 52.9479C69.2977 52.9479 70.2315 52.2131 70.2315 50.9068C70.2315 49.6004 69.2977 48.8656 67.6494 48.8197H65.399V52.902L67.6494 52.9479Z" fill="white"/>
<path d="M75.5233 47.4113H73.9873V57.5814H75.5233V47.4113Z" fill="white"/>
<path d="M81.3355 57.5814L77.1511 47.4113H78.8708L81.8356 54.7952C81.9895 55.2039 82.119 55.6214 82.2234 56.0454C82.3357 55.6321 82.4735 55.1983 82.6062 54.7952L85.6373 47.4113H87.3059L83.1062 57.5814H81.3355Z" fill="white"/>
<path d="M88.2398 57.5814H86.5864L90.8219 47.4113H92.863L97.0933 57.5814H95.4451L94.4602 55.1779H89.2246L88.2398 57.5814ZM92.2252 49.7127C92.0764 49.3131 91.9487 48.906 91.8424 48.4931C91.7362 48.906 91.6084 49.3131 91.4597 49.7127L89.7911 53.7644H93.8734L92.2252 49.7127Z" fill="white"/>
<path d="M101.946 47.4113C105.477 47.4113 107.462 49.2126 107.462 52.4121C107.462 55.7137 105.477 57.5814 101.946 57.5814H98.7416V47.4113H101.946ZM101.946 56.1475C104.498 56.1475 105.896 54.7952 105.896 52.4121C105.896 50.1311 104.477 48.8401 101.946 48.8401H100.278V56.1424L101.946 56.1475Z" fill="white"/>
<path d="M109.631 57.5814H107.983L112.218 47.4113H114.26L118.495 57.5814H116.847L115.862 55.1779H110.616L109.631 57.5814ZM113.632 49.7127C113.483 49.3131 113.356 48.906 113.249 48.4931C113.143 48.906 113.015 49.3131 112.867 49.7127L111.198 53.7644H115.28L113.632 49.7127Z" fill="white"/>
<path d="M128.196 47.4113C131.732 47.4113 133.712 49.2126 133.712 52.4121C133.712 55.7137 131.732 57.5814 128.196 57.5814H124.996V47.4113H128.196ZM128.196 56.1475C130.747 56.1475 132.145 54.7952 132.145 52.4121C132.145 50.1311 130.727 48.8401 128.196 48.8401H126.527V56.1424L128.196 56.1475Z" fill="white"/>
<path d="M135.814 57.5814V47.4113H142.683V48.8452H137.35V51.764H141.999V53.198H137.35V56.1475H142.836V57.5814H135.814Z" fill="white"/>
<path d="M145.051 57.5814V47.4113H146.587V56.1117H151.572V57.5814H145.051Z" fill="white"/>
<path d="M165.217 57.5814L159.451 50.0291V57.5814H157.92V47.4113H159.318L165.085 54.9993V47.4113H166.621V57.5814H165.217Z" fill="white"/>
<path d="M178.49 52.5142C178.49 55.8464 176.709 57.7294 173.642 57.7294C170.576 57.7294 168.805 55.8464 168.805 52.5142C168.805 49.182 170.591 47.2582 173.642 47.2582C176.694 47.2582 178.49 49.1412 178.49 52.5244V52.5142ZM176.924 52.5244C176.924 50.0087 175.74 48.687 173.642 48.687C171.545 48.687 170.371 50.0087 170.371 52.5244C170.371 55.0401 171.555 56.3057 173.642 56.3057C175.729 56.3057 176.924 55.0095 176.924 52.5244Z" fill="white"/>
<path d="M188.762 57.5814H187.078L184.496 54.4023H182.129V57.6018H180.598V47.4113H184.348C187.032 47.4113 188.533 48.6819 188.533 50.9323C188.547 51.6753 188.309 52.4011 187.858 52.9915C187.406 53.5819 186.768 54.0018 186.048 54.1828L188.767 57.464L188.762 57.5814ZM184.379 52.9479C186.027 52.9479 186.961 52.2131 186.961 50.9068C186.961 49.6004 186.027 48.8656 184.379 48.8197H182.129V52.902L184.379 52.9479Z" fill="white"/>
<path d="M194.08 48.8452V57.5814H192.549V48.8452H188.997V47.4113H197.631V48.8452H194.08Z" fill="white"/>
<path d="M198.984 57.5814V47.4113H205.852V48.8452H200.514V51.764H205.168V53.198H200.514V56.1475H206V57.5814H198.984Z" fill="white"/>
</svg>
