<svg width="29" height="29" viewBox="0 0 29 29" fill="none" xmlns="http://www.w3.org/2000/svg">
<path d="M0.939941 6.591H6.95172V0.579224L0.939941 6.591Z" fill="#404041"/>
<path d="M22.5807 7.97132L19.7843 10.7676L18.7444 11.8074L18.3861 12.1657L18.156 12.3959V0H8.92879V8.5682H0.360596V24.3864H7.6106V29H13.6692L24.4448 18.2244L25.8429 16.8263L28.6392 14.0301L22.5807 7.97132ZM19.7843 13.5639L20.7164 14.496L10.9997 24.2127L10.0676 23.2807L19.7843 13.5639ZM5.30379 10.5455H13.2129V12.5227H5.30379V10.5455ZM5.30379 14.5H13.2129V16.4773H5.30379V14.5ZM7.94013 20.4318H5.30379V18.4545H7.94013V20.4318ZM9.58786 27.0227V25.5971L11.0135 27.0227H9.58786ZM13.33 26.543L12.3979 25.6109L22.1147 15.8941L23.0468 16.8262L13.33 26.543ZM24.4448 15.4281L21.1824 12.1657L22.5805 10.7676L25.8428 14.0299L24.4448 15.4281Z" fill="#404041"/>
</svg>
