<svg width="93" height="94" viewBox="0 0 93 94" fill="none" xmlns="http://www.w3.org/2000/svg">
<g clip-path="url(#clip0)">
<path d="M93 46.4276C93 55.6101 90.2728 64.5863 85.1633 72.2213C80.0538 79.8563 72.7915 85.807 64.2948 89.321C55.798 92.835 46.4484 93.7544 37.4283 91.963C28.4082 90.1716 20.1227 85.7498 13.6195 79.2568C7.11638 72.7638 2.68769 64.4912 0.893475 55.4851C-0.900738 46.4791 0.0201174 37.144 3.53959 28.6605C7.05907 20.177 13.0191 12.926 20.666 7.82445C28.3129 2.72293 37.3032 0 46.5 0C58.8326 0 70.66 4.89146 79.3804 13.5983C88.1009 22.3052 93 34.1142 93 46.4276Z" fill="#F7DAA2"/>
<path d="M72.2569 73.5735C69.3309 69.9335 46.1995 61.9508 46.1995 61.9508C46.1995 61.9508 23.5584 70.7784 20.15 73.5735C16.7416 76.3686 15.4684 94 15.4684 94H76.2742C76.2742 94 75.175 77.2056 72.2569 73.5735Z" fill="#293033"/>
<path d="M53.3722 66.2145C53.3722 66.2145 52.4865 70.4941 46.2074 70.4941C39.9283 70.4941 39.0901 66.2145 39.0901 66.2145C39.6015 65.0232 39.8653 63.7405 39.8653 62.4443C39.8653 61.1481 39.6015 59.8654 39.0901 58.674C37.3423 54.6076 55.5469 53.7865 53.4117 58.674C51.2765 63.5615 53.3722 66.2145 53.3722 66.2145Z" fill="#DDA778"/>
<path d="M61.1617 50.1386C61.6204 44.0351 65.5033 35.2392 65.5033 35.2392C71.0153 22.898 65.2898 4.35062 54.5663 10.0593C41.3597 -2.01343 20.4189 14.8679 27.5046 35.0733C27.5046 35.0733 30.8656 43.2534 31.1898 49.2859C31.514 55.3183 42.3799 67.3989 45.8674 67.5963C49.3549 67.7937 60.711 56.2421 61.1617 50.1386Z" fill="#442928"/>
<path d="M66.4286 38.7686C66.4286 41.9901 64.1352 46.4275 62.5931 46.4275C61.051 46.4275 59.7936 43.814 59.7936 40.5846C59.7499 39.4544 59.9844 38.3308 60.4766 37.3122C60.9688 36.2935 61.7037 35.4109 62.6168 34.7417C64.1115 33.5731 66.4286 34.7417 66.4286 38.7686Z" fill="#F9BB8D"/>
<path d="M26.4212 38.7686C26.4212 41.9901 28.7066 46.4275 30.2566 46.4275C31.8066 46.4275 33.0482 43.814 33.0482 40.5846C33.0955 39.4572 32.8659 38.3354 32.3793 37.3169C31.8927 36.2985 31.164 35.4144 30.2566 34.7417C28.762 33.5731 26.4212 34.7417 26.4212 38.7686Z" fill="#F9BB8D"/>
<path d="M46.5 13.1782C35.6421 13.1782 30.8418 20.774 30.8418 32.1282V46.3407C30.8418 56.2105 42.2612 64.6512 45.8674 64.6512C49.4735 64.6512 62.1582 54.7814 62.1582 45.4327V32.1124C62.1582 20.774 57.3579 13.1782 46.5 13.1782Z" fill="#F9BB8D"/>
<path d="M62.1582 40.1977L63.1388 31.9308C63.1388 20.5923 57.3579 12.1912 46.5316 12.1912C35.7054 12.1912 29.7347 21.8083 29.7347 33.1625L30.8418 42.0138C31.6082 41.4469 32.2297 40.7073 32.6557 39.8552C33.0818 39.0032 33.3002 38.0627 33.2934 37.1104C33.0324 29.8384 36.852 28.7645 42.7832 27.6354C52.1939 25.8115 54.7878 20.2054 54.7878 20.2054C54.7878 20.2054 57.8561 21.2398 59.8173 25.8115C61.0906 28.7645 59.4298 31.9781 59.327 33.8258C59.2242 35.6734 62.1582 40.1977 62.1582 40.1977Z" fill="#442928"/>
<path d="M47.5201 58.6898C46.4259 58.837 45.3167 58.837 44.2224 58.6898C45.9781 61.3823 44.2224 65.2039 44.2224 65.2039H47.5201C46.6876 63.1121 46.6876 60.7816 47.5201 58.6898Z" fill="#442928"/>
</g>
<defs>
<clipPath id="clip0">
<rect width="93" height="94" fill="white"/>
</clipPath>
</defs>
</svg>
