<svg width="42" height="42" viewBox="0 0 19 15" fill="none" xmlns="http://www.w3.org/2000/svg">
<path d="M6.10693 12.5536V8.14286H12.2566C12.4366 8.14286 12.6092 8.07137 12.7364 7.94411C12.8637 7.81685 12.9352 7.64425 12.9352 7.46429C12.9352 7.28432 12.8637 7.11172 12.7364 6.98446C12.6092 6.85721 12.4366 6.78571 12.2566 6.78571H6.10693V2.375C6.1076 1.74532 6.35805 1.14162 6.80331 0.696365C7.24857 0.251112 7.85228 0.000673578 8.48197 0H16.625C17.2547 0.000673578 17.8584 0.251112 18.3036 0.696365C18.7489 1.14162 18.9993 1.74532 19 2.375V12.5536C18.9993 13.1833 18.7489 13.787 18.3036 14.2322C17.8584 14.6775 17.2547 14.9279 16.625 14.9286H8.48197C7.85228 14.9279 7.24857 14.6775 6.80331 14.2322C6.35805 13.787 6.1076 13.1833 6.10693 12.5536ZM2.31662 8.14286L4.55085 10.3775C4.67274 10.5058 4.73969 10.6766 4.73742 10.8535C4.73516 11.0305 4.66386 11.1996 4.53873 11.3247C4.4136 11.4498 4.24453 11.5211 4.06758 11.5234C3.89064 11.5256 3.7198 11.4587 3.59151 11.3368L0.198595 7.94395C0.0714321 7.81671 0 7.64418 0 7.46429C0 7.28439 0.0714321 7.11187 0.198595 6.98462L3.59151 3.59176C3.7198 3.46988 3.89064 3.40293 4.06758 3.4052C4.24453 3.40746 4.4136 3.47876 4.53873 3.60389C4.66386 3.72902 4.73516 3.89808 4.73742 4.07503C4.73969 4.25197 4.67274 4.4228 4.55085 4.55109L2.31662 6.78571H6.10693V8.14286H2.31662Z" fill="#FDBA30"/>
</svg>
