<svg width="39" height="58" viewBox="0 0 39 58" fill="none" xmlns="http://www.w3.org/2000/svg">
<path d="M1.04098 18.6818C2.50042 18.9421 4.5569 19.8912 4.5569 23.2081V46.1968C5.17435 46.0692 6.34292 45.7937 7.85339 45.3293V30.1328L16.7121 41.4307C19.2141 39.9623 21.5043 38.1597 23.5194 36.0726L7.24104 15.6201H0.0357056V18.6155H0.346984C0.622542 18.6155 0.724601 18.6512 1.0665 18.6869" fill="white"/>
<path d="M34.0978 15.6506C34.2032 21.0744 32.9767 26.4413 30.5257 31.2809V44.9057L25.234 38.2719C23.095 40.2621 20.6523 41.8986 17.998 43.1197L29.3623 57.612H33.8324V23.1162C33.9345 20.0034 35.9144 19.0849 37.3381 18.8349C37.7628 18.7798 38.1907 18.7526 38.619 18.7532V15.6506H34.0978Z" fill="white"/>
<path d="M30.9033 15.6201H26.0045V18.7277C26.3461 18.7243 26.6874 18.7482 27.0251 18.7992C27.8063 18.9034 28.5381 19.2397 29.1259 19.7647C29.7137 20.2897 30.1302 20.9791 30.3216 21.7436C30.9135 19.8606 30.9135 16.4671 30.9033 15.6201Z" fill="white"/>
<path d="M32.2964 7.10838V0L25.9994 10.41L32.2964 7.10838Z" fill="white"/>
<path d="M32.2964 7.10838V0L38.5934 10.41L32.2964 7.10838Z" fill="#FDBA30"/>
<path d="M12.3746 54.5656C12.0328 54.5702 11.6913 54.5446 11.354 54.489C9.88947 54.2288 7.83299 53.2796 7.83299 49.9627V46.0284C6.78179 46.1917 5.67956 46.3192 4.5416 46.4162V49.9883C4.5416 53.3001 2.50043 54.2543 1.02059 54.5145C0.683272 54.5698 0.341776 54.5954 0 54.5911V57.5865H12.3746V54.5911V54.5656Z" fill="white"/>
</svg>
