<svg width="51" height="49" viewBox="0 0 51 49" fill="none" xmlns="http://www.w3.org/2000/svg">
<path fill-rule="evenodd" clip-rule="evenodd" d="M5.02264 48.5403C5.02264 48.5403 0.858154 48.5402 0.858154 44.5C0.858154 40.4598 5.02265 28.3391 25.8451 28.3391C46.6675 28.3391 50.832 40.4598 50.832 44.5C50.832 48.5402 46.6675 48.5403 46.6675 48.5403H5.02264ZM25.8451 24.2989C29.1586 24.2989 32.3363 23.0219 34.6793 20.7488C37.0223 18.4757 38.3386 15.3928 38.3386 12.1782C38.3386 8.96358 37.0223 5.88063 34.6793 3.60756C32.3363 1.33449 29.1586 0.0574951 25.8451 0.0574951C22.5316 0.0574951 19.3539 1.33449 17.0109 3.60756C14.6679 5.88063 13.3516 8.96358 13.3516 12.1782C13.3516 15.3928 14.6679 18.4757 17.0109 20.7488C19.3539 23.0219 22.5316 24.2989 25.8451 24.2989Z" fill="#FDBA30"/>
</svg>
