<svg width="35" height="35" viewBox="0 0 35 35" fill="none" xmlns="http://www.w3.org/2000/svg">
<path d="M0 17.5C0 27.1645 7.83546 35 17.5 35C27.1645 35 35 27.1645 35 17.5C35 7.83546 27.1645 0 17.5 0C7.83546 0 0 7.83546 0 17.5ZM17.8912 9.81346C18.0168 9.93797 18.1165 10.086 18.1849 10.2491C18.2532 10.4121 18.2887 10.5871 18.2894 10.7639C18.2901 10.9407 18.256 11.1159 18.189 11.2795C18.1219 11.4431 18.0233 11.5919 17.8988 11.7174L13.4969 16.1538H24.7356C25.0926 16.1538 25.435 16.2957 25.6875 16.5481C25.9399 16.8006 26.0817 17.143 26.0817 17.5C26.0817 17.857 25.9399 18.1994 25.6875 18.4519C25.435 18.7043 25.0926 18.8462 24.7356 18.8462H13.4969L17.8988 23.2826C18.0233 23.4082 18.1219 23.5571 18.1888 23.7208C18.2558 23.8845 18.2899 24.0598 18.2891 24.2367C18.2883 24.4136 18.2527 24.5886 18.1843 24.7517C18.1159 24.9148 18.016 25.0629 17.8904 25.1874C17.7648 25.3119 17.6158 25.4105 17.4521 25.4774C17.2884 25.5444 17.1131 25.5785 16.9362 25.5777C16.7594 25.5769 16.5844 25.5413 16.4213 25.4729C16.2581 25.4045 16.1101 25.3046 15.9856 25.179L9.30613 18.4482C9.05592 18.196 8.91551 17.8552 8.91551 17.5C8.91551 17.1448 9.05592 16.804 9.30613 16.5518L15.9856 9.82103C16.1101 9.69525 16.2582 9.59526 16.4215 9.52679C16.5847 9.45832 16.7598 9.42272 16.9368 9.42201C17.1138 9.42131 17.2892 9.45552 17.453 9.52269C17.6168 9.58986 17.7657 9.68867 17.8912 9.81346Z" fill="#FDBA30"/>
</svg>
